# xmcd
#
# Track frame offsets:
#	150
#	20221
#	43217
#	59772
#	92667
#	117524
#	129954
#	157364
#	176626
#	196999
#	212315
#
# Disc length: 3069 seconds
#
# Revision: 0
# Processed by: cddbd v1.5.2PL0 Copyright (c) Steve Scherf et al.
# Submitted via: dBpowerAMP V4.0
#
DISCID=a40bfb0b
DTITLE=Voodoo Jones - Get Your Blues Fix
DYEAR=1900
DGENRE=Blues
TTITLE0=Honey Hush
TTITLE1=Still Called The Blues
TTITLE2=Still Livin'
TTITLE3=More Than Blues
TTITLE4=Last Train Home
TTITLE5=Please Wait For Me
TTITLE6=Deep In A Dark Night
TTITLE7=Never Make My Move Too Soon
TTITLE8=Voodood
TTITLE9=Why Did You Do Me Wrong
TTITLE10=Jonesin'
EXTD=
EXTT0=
EXTT1=
EXTT2=
EXTT3=
EXTT4=
EXTT5=
EXTT6=
EXTT7=
EXTT8=
EXTT9=
EXTT10=
PLAYORDER=
